<svg width="2474" height="1044" xmlns="http://www.w3.org/2000/svg" xmlns:xlink="http://www.w3.org/1999/xlink" xml:space="preserve" overflow="hidden"><g transform="translate(-1052 -1003)"><path d="M2032 1526.98 2159.27 1526.98 2159.27 1543.02 2032 1543.02ZM2151.25 1510.94 2199.38 1535 2151.25 1559.06Z" fill="#4F81BD"/><path d="M7.92241e-06-8.02083 325.272-8.02051 325.272 8.02115-7.92241e-06 8.02083ZM317.251-24.0622 365.376 0.000360892 317.251 24.0628Z" fill="#C0504D" transform="matrix(-1 0 0 1 2397.38 1964)"/><path d="M4.5834 22.9167 4.58369 131.075 1.52814 131.075 1.52784 22.9167ZM-1.52771 22.9167-1.52742 131.075-4.58297 131.075-4.58327 22.9167ZM-13.7499 27.5 0 0 13.7501 27.5Z" fill="#C0504D" transform="matrix(1 0 0 -1 2464.5 1930.57)"/><path d="M4.5834 22.9167 4.58369 131.383 1.52814 131.383 1.52784 22.9167ZM-1.52772 22.9167-1.52742 131.383-4.58297 131.383-4.58327 22.9167ZM-13.7499 27.5 0 0 13.7501 27.5Z" fill="#C0504D" transform="matrix(1 0 0 -1 2662.5 1930.88)"/><path d="M22.9378-4.47627 66.021-4.27508 66.0068-1.21956 22.9235-1.42075ZM22.9093 1.63478 65.9925 1.83596 65.9782 4.89149 22.895 4.6903ZM27.4355 13.8783 0 0 27.5639-13.6214Z" fill="#4F81BD" transform="matrix(-1 0 0 1 2794.5 1535.5)"/><rect x="2398.5" y="1667.5" width="132" height="132" stroke="#000000" stroke-width="9.16667" stroke-linejoin="round" stroke-miterlimit="10" fill="#EBF1DE"/><text font-family="Trebuchet MS,Trebuchet MS_MSFontService,sans-serif" font-weight="400" font-size="64" transform="matrix(1 0 0 1 2444.38 1757)">C</text><rect x="2596.5" y="1667.5" width="132" height="132" stroke="#000000" stroke-width="9.16667" stroke-linejoin="round" stroke-miterlimit="10" fill="#EBF1DE"/><text font-family="Trebuchet MS,Trebuchet MS_MSFontService,sans-serif" font-weight="400" font-size="64" transform="matrix(1 0 0 1 2644.68 1757)">F</text><path d="M1.2531e-05-4.58333 132-4.58297 132-1.52742 4.17701e-06-1.52778ZM-4.17701e-06 1.52778 132 1.52814 132 4.58369-1.2531e-05 4.58333ZM-3.75931e-05 13.75C-7.59395 13.75-13.75 7.59388-13.75-3.75931e-05-13.75-7.59395-7.59388-13.75 3.75931e-05-13.75 7.59395-13.75 13.75-7.59388 13.75 3.75931e-05 13.75 7.59395 7.59388 13.75-3.75931e-05 13.75Z" fill="#4F81BD" transform="matrix(-1 0 0 1 2398.5 1733.5)"/><rect x="2398.5" y="1931.5" width="528" height="66" stroke="#000000" stroke-width="9.16667" stroke-linejoin="round" stroke-miterlimit="10" fill="#FDEADA"/><text font-family="Trebuchet MS,Trebuchet MS_MSFontService,sans-serif" font-weight="700" font-size="55" transform="matrix(1 0 0 1 2609.44 1984)">ADC</text><path d="M4.58333-2.50618e-05 4.58369 66.0003 1.52814 66.0004 1.52778-8.35394e-06ZM-1.52778 8.35395e-06-1.52742 66.0004-4.58297 66.0004-4.58333 2.50618e-05ZM-13.75 7.51855e-05C-13.75-7.59384-7.59399-13.75-7.51855e-05-13.75 7.59384-13.75 13.75-7.59399 13.75-7.51855e-05 13.75 7.59384 7.59399 13.75 7.51855e-05 13.75-7.59384 13.75-13.75 7.59399-13.75 7.51855e-05Z" fill="#C0504D" transform="matrix(1 0 0 -1 2662.5 1667.5)"/><path d="M4.58333-2.50618e-05 4.58369 66.0003 1.52814 66.0004 1.52778-8.35394e-06ZM-1.52778 8.35395e-06-1.52742 66.0004-4.58297 66.0004-4.58333 2.50618e-05ZM-13.75 7.51855e-05C-13.75-7.59384-7.59399-13.75-7.51855e-05-13.75 7.59384-13.75 13.75-7.59399 13.75-7.51855e-05 13.75 7.59384 7.59399 13.75 7.51855e-05 13.75-7.59384 13.75-13.75 7.59399-13.75 7.51855e-05Z" fill="#C0504D" transform="matrix(1 0 0 -1 2464.5 1667.5)"/><rect x="2596.5" y="1469.5" width="132" height="132" stroke="#000000" stroke-width="9.16667" stroke-linejoin="round" stroke-miterlimit="10" fill="#EBF1DE"/><text font-family="Trebuchet MS,Trebuchet MS_MSFontService,sans-serif" font-weight="400" font-size="64" transform="matrix(1 0 0 1 2644.39 1559)">E</text><rect x="2398.5" y="1469.5" width="132" height="132" stroke="#000000" stroke-width="9.16667" stroke-linejoin="round" stroke-miterlimit="10" fill="#EBF1DE"/><text font-family="Trebuchet MS,Trebuchet MS_MSFontService,sans-serif" font-weight="400" font-size="64" transform="matrix(1 0 0 1 2445.53 1559)">B</text><path d="M1.2531e-05-4.58333 132-4.58297 132-1.52742 4.17701e-06-1.52778ZM-4.17701e-06 1.52778 132 1.52814 132 4.58369-1.2531e-05 4.58333ZM-3.75931e-05 13.75C-7.59395 13.75-13.75 7.59388-13.75-3.75931e-05-13.75-7.59395-7.59388-13.75 3.75931e-05-13.75 7.59395-13.75 13.75-7.59388 13.75 3.75931e-05 13.75 7.59395 7.59388 13.75-3.75931e-05 13.75Z" fill="#4F81BD" transform="matrix(-1 0 0 1 2398.5 1535.5)"/><rect x="2200.5" y="1271.5" width="66" height="528" stroke="#000000" stroke-width="9.16667" stroke-linejoin="round" stroke-miterlimit="10" fill="#FDEADA"/><text font-family="Trebuchet MS,Trebuchet MS_MSFontService,sans-serif" font-weight="700" font-size="55" transform="matrix(-1.83697e-16 -1 1 -1.83697e-16 2252.58 1587)">DAC</text><rect x="2794.5" y="1667.5" width="132" height="132" stroke="#000000" stroke-width="9.16667" stroke-linejoin="round" stroke-miterlimit="10" fill="#EBF1DE"/><text font-family="Trebuchet MS,Trebuchet MS_MSFontService,sans-serif" font-weight="400" font-size="64" transform="matrix(1 0 0 1 2850.7 1756)">I</text><rect x="2794.5" y="1469.5" width="132" height="132" stroke="#000000" stroke-width="9.16667" stroke-linejoin="round" stroke-miterlimit="10" fill="#EBF1DE"/><text font-family="Trebuchet MS,Trebuchet MS_MSFontService,sans-serif" font-weight="400" font-size="64" transform="matrix(1 0 0 1 2838.66 1558)">H</text><rect x="2596.5" y="1271.5" width="132" height="132" stroke="#000000" stroke-width="9.16667" stroke-linejoin="round" stroke-miterlimit="10" fill="#EBF1DE"/><text font-family="Trebuchet MS,Trebuchet MS_MSFontService,sans-serif" font-weight="400" font-size="64" transform="matrix(1 0 0 1 2641.81 1361)">D</text><rect x="2398.5" y="1271.5" width="132" height="132" stroke="#000000" stroke-width="9.16667" stroke-linejoin="round" stroke-miterlimit="10" fill="#EBF1DE"/><text font-family="Trebuchet MS,Trebuchet MS_MSFontService,sans-serif" font-weight="400" font-size="64" transform="matrix(1 0 0 1 2444.67 1361)">A</text><rect x="2794.5" y="1271.5" width="132" height="132" stroke="#000000" stroke-width="9.16667" stroke-linejoin="round" stroke-miterlimit="10" fill="#EBF1DE"/><text font-family="Trebuchet MS,Trebuchet MS_MSFontService,sans-serif" font-weight="400" font-size="64" transform="matrix(1 0 0 1 2837.8 1360)">G</text><path d="M4.58333-2.5062e-05 4.58369 66 1.52814 66 1.52778-8.35399e-06ZM-1.52778 8.35399e-06-1.52742 66-4.58297 66-4.58333 2.5062e-05ZM-13.75 7.51859e-05C-13.75-7.59384-7.59399-13.75-7.51859e-05-13.75 7.59384-13.75 13.75-7.59399 13.75-7.51859e-05 13.75 7.59384 7.59399 13.75 7.51859e-05 13.75-7.59384 13.75-13.75 7.59399-13.75 7.51859e-05Z" fill="#C0504D" transform="matrix(1 0 0 -1 2662.5 1469.5)"/><path d="M4.58333-2.5062e-05 4.58369 66 1.52814 66 1.52778-8.35399e-06ZM-1.52778 8.35399e-06-1.52742 66-4.58297 66-4.58333 2.5062e-05ZM-13.75 7.51859e-05C-13.75-7.59384-7.59399-13.75-7.51859e-05-13.75 7.59384-13.75 13.75-7.59399 13.75-7.51859e-05 13.75 7.59384 7.59399 13.75 7.51859e-05 13.75-7.59384 13.75-13.75 7.59399-13.75 7.51859e-05Z" fill="#C0504D" transform="matrix(1 0 0 -1 2464.5 1469.5)"/><path d="M22.9378-4.47614 66.0211-4.27472 66.0068-1.2192 22.9236-1.42062ZM22.9093 1.6349 65.9925 1.83632 65.9782 4.89185 22.895 4.69042ZM27.4354 13.8784 0 0 27.564-13.6213Z" fill="#4F81BD" transform="matrix(-1 0 0 1 2794.5 1733.5)"/><path d="M22.9378-4.47614 66.0211-4.27472 66.0068-1.2192 22.9236-1.42062ZM22.9093 1.6349 65.9925 1.83632 65.9782 4.89185 22.895 4.69042ZM27.4354 13.8784 0 0 27.564-13.6213Z" fill="#4F81BD" transform="matrix(-1 0 0 1 2794.5 1337.5)"/><path d="M4.58333-2.50618e-05 4.58369 66.0003 1.52814 66.0004 1.52778-8.35394e-06ZM-1.52778 8.35395e-06-1.52742 66.0004-4.58297 66.0004-4.58333 2.50618e-05ZM-13.75 7.51855e-05C-13.75-7.59384-7.59399-13.75-7.51855e-05-13.75 7.59384-13.75 13.75-7.59399 13.75-7.51855e-05 13.75 7.59384 7.59399 13.75 7.51855e-05 13.75-7.59384 13.75-13.75 7.59399-13.75 7.51855e-05Z" fill="#C0504D" transform="matrix(1 0 0 -1 2860.5 1469.5)"/><path d="M4.58333-2.5062e-05 4.58369 66 1.52814 66 1.52778-8.35399e-06ZM-1.52778 8.35399e-06-1.52742 66-4.58297 66-4.58333 2.5062e-05ZM-13.75 7.51859e-05C-13.75-7.59384-7.59399-13.75-7.51859e-05-13.75 7.59384-13.75 13.75-7.59399 13.75-7.51859e-05 13.75 7.59384 7.59399 13.75 7.51859e-05 13.75-7.59384 13.75-13.75 7.59399-13.75 7.51859e-05Z" fill="#C0504D" transform="matrix(1 0 0 -1 2860.5 1667.5)"/><path d="M2.5062e-05-4.58333 66-4.58297 66-1.52742 8.35399e-06-1.52778ZM-8.35399e-06 1.52778 66 1.52814 66 4.58369-2.5062e-05 4.58333ZM-7.51859e-05 13.75C-7.59399 13.75-13.75 7.59384-13.75-7.51859e-05-13.75-7.59399-7.59384-13.75 7.51859e-05-13.75 7.59399-13.75 13.75-7.59384 13.75 7.51859e-05 13.75 7.59399 7.59384 13.75-7.51859e-05 13.75Z" fill="#4F81BD" transform="matrix(-1 0 0 1 2596.5 1733.5)"/><path d="M2.5062e-05-4.58333 66-4.58297 66-1.52742 8.35399e-06-1.52778ZM-8.35399e-06 1.52778 66 1.52814 66 4.58369-2.5062e-05 4.58333ZM-7.51859e-05 13.75C-7.59399 13.75-13.75 7.59384-13.75-7.51859e-05-13.75-7.59399-7.59384-13.75 7.51859e-05-13.75 7.59399-13.75 13.75-7.59384 13.75 7.51859e-05 13.75 7.59399 7.59384 13.75-7.51859e-05 13.75Z" fill="#4F81BD" transform="matrix(-1 0 0 1 2596.5 1535.5)"/><path d="M2.5062e-05-4.58333 66-4.58297 66-1.52742 8.35399e-06-1.52778ZM-8.35399e-06 1.52778 66 1.52814 66 4.58369-2.5062e-05 4.58333ZM-7.51859e-05 13.75C-7.59399 13.75-13.75 7.59384-13.75-7.51859e-05-13.75-7.59399-7.59384-13.75 7.51859e-05-13.75 7.59399-13.75 13.75-7.59384 13.75 7.51859e-05 13.75 7.59399 7.59384 13.75-7.51859e-05 13.75Z" fill="#4F81BD" transform="matrix(-1 0 0 1 2596.5 1337.5)"/><path d="M1.2531e-05-4.58333 132-4.58297 132-1.52742 4.17701e-06-1.52778ZM-4.17701e-06 1.52778 132 1.52814 132 4.58369-1.2531e-05 4.58333ZM-3.75931e-05 13.75C-7.59395 13.75-13.75 7.59388-13.75-3.75931e-05-13.75-7.59395-7.59388-13.75 3.75931e-05-13.75 7.59395-13.75 13.75-7.59388 13.75 3.75931e-05 13.75 7.59395 7.59388 13.75-3.75931e-05 13.75Z" fill="#4F81BD" transform="matrix(-1 0 0 1 2398.5 1337.5)"/><path d="M4.5834 22.9167 4.58369 131.383 1.52814 131.383 1.52784 22.9167ZM-1.52772 22.9167-1.52742 131.383-4.58297 131.383-4.58327 22.9167ZM-13.7499 27.5 0 0 13.7501 27.5Z" fill="#C0504D" transform="matrix(1 0 0 -1 2860.5 1930.88)"/><rect x="1091.5" y="1099.5" width="66" height="66" stroke="#000000" stroke-width="4.58333" stroke-linejoin="round" stroke-miterlimit="10" fill="#EBF1DE"/><text font-family="Trebuchet MS,Trebuchet MS_MSFontService,sans-serif" font-weight="400" font-size="64" transform="matrix(1 0 0 1 1104.75 1156)">A</text><rect x="1091.5" y="1165.5" width="66" height="66" stroke="#000000" stroke-width="4.58333" stroke-linejoin="round" stroke-miterlimit="10" fill="#EBF1DE"/><text font-family="Trebuchet MS,Trebuchet MS_MSFontService,sans-serif" font-weight="400" font-size="64" transform="matrix(1 0 0 1 1103.89 1222)">D</text><rect x="1091.5" y="1231.5" width="66" height="66" stroke="#000000" stroke-width="4.58333" stroke-linejoin="round" stroke-miterlimit="10" fill="#EBF1DE"/><text font-family="Trebuchet MS,Trebuchet MS_MSFontService,sans-serif" font-weight="400" font-size="64" transform="matrix(1 0 0 1 1101.88 1288)">G</text><rect x="1156.5" y="1099.5" width="66" height="66" stroke="#000000" stroke-width="4.58333" stroke-linejoin="round" stroke-miterlimit="10" fill="#EBF1DE"/><text font-family="Trebuchet MS,Trebuchet MS_MSFontService,sans-serif" font-weight="400" font-size="64" transform="matrix(1 0 0 1 1171.44 1156)">B</text><rect x="1156.5" y="1165.5" width="66" height="66" stroke="#000000" stroke-width="4.58333" stroke-linejoin="round" stroke-miterlimit="10" fill="#EBF1DE"/><text font-family="Trebuchet MS,Trebuchet MS_MSFontService,sans-serif" font-weight="400" font-size="64" transform="matrix(1 0 0 1 1172.3 1222)">E</text><rect x="1156.5" y="1231.5" width="66" height="66" stroke="#000000" stroke-width="4.58333" stroke-linejoin="round" stroke-miterlimit="10" fill="#EBF1DE"/><text font-family="Trebuchet MS,Trebuchet MS_MSFontService,sans-serif" font-weight="400" font-size="64" transform="matrix(1 0 0 1 1168.57 1288)">H</text><rect x="1222.5" y="1099.5" width="66" height="66" stroke="#000000" stroke-width="4.58333" stroke-linejoin="round" stroke-miterlimit="10" fill="#EBF1DE"/><text font-family="Trebuchet MS,Trebuchet MS_MSFontService,sans-serif" font-weight="400" font-size="64" transform="matrix(1 0 0 1 1235.77 1156)">C</text><rect x="1222.5" y="1165.5" width="66" height="66" stroke="#000000" stroke-width="4.58333" stroke-linejoin="round" stroke-miterlimit="10" fill="#EBF1DE"/><text font-family="Trebuchet MS,Trebuchet MS_MSFontService,sans-serif" font-weight="400" font-size="64" transform="matrix(1 0 0 1 1238.06 1222)">F</text><rect x="1222.5" y="1231.5" width="66" height="66" stroke="#000000" stroke-width="4.58333" stroke-linejoin="round" stroke-miterlimit="10" fill="#EBF1DE"/><text font-family="Trebuchet MS,Trebuchet MS_MSFontService,sans-serif" font-weight="400" font-size="64" transform="matrix(1 0 0 1 1246.08 1288)">I</text><text font-family="Calibri,Calibri_MSFontService,sans-serif" font-weight="700" font-size="64" transform="matrix(1 0 0 1 1304.75 1221)">×</text><rect x="1353.5" y="1099.5" width="66" height="66" stroke="#000000" stroke-width="4.58333" stroke-linejoin="round" stroke-miterlimit="10" fill="#DCE6F2"/><text font-family="Trebuchet MS,Trebuchet MS_MSFontService,sans-serif" font-weight="400" font-size="64" transform="matrix(1 0 0 1 1369.37 1156)">1</text><rect x="1353.5" y="1165.5" width="66" height="66" stroke="#000000" stroke-width="4.58333" stroke-linejoin="round" stroke-miterlimit="10" fill="#DCE6F2"/><text font-family="Trebuchet MS,Trebuchet MS_MSFontService,sans-serif" font-weight="400" font-size="64" transform="matrix(1 0 0 1 1369.37 1222)">2</text><rect x="1353.5" y="1231.5" width="66" height="66" stroke="#000000" stroke-width="4.58333" stroke-linejoin="round" stroke-miterlimit="10" fill="#DCE6F2"/><text font-family="Trebuchet MS,Trebuchet MS_MSFontService,sans-serif" font-weight="400" font-size="64" transform="matrix(1 0 0 1 1369.37 1288)">3</text><text font-family="Trebuchet MS,Trebuchet MS_MSFontService,sans-serif" font-weight="700" font-size="64" transform="matrix(1 0 0 1 1433.2 1222)">=</text><rect x="1485.5" y="1101.5" width="66" height="66" stroke="#000000" stroke-width="4.58333" stroke-linejoin="round" stroke-miterlimit="10" fill="#F2DCDB"/><text font-family="Trebuchet MS,Trebuchet MS_MSFontService,sans-serif" font-weight="400" font-size="64" transform="matrix(1 0 0 1 1498.97 1157)">α</text><rect x="1485.5" y="1167.5" width="66" height="66" stroke="#000000" stroke-width="4.58333" stroke-linejoin="round" stroke-miterlimit="10" fill="#F2DCDB"/><text font-family="Trebuchet MS,Trebuchet MS_MSFontService,sans-serif" font-weight="400" font-size="64" transform="matrix(1 0 0 1 1499.54 1223)">β</text><rect x="1485.5" y="1233.5" width="66" height="66" stroke="#000000" stroke-width="4.58333" stroke-linejoin="round" stroke-miterlimit="10" fill="#F2DCDB"/><text font-family="Trebuchet MS,Trebuchet MS_MSFontService,sans-serif" font-weight="400" font-size="64" transform="matrix(1 0 0 1 1500.11 1289)">γ</text><text font-family="Trebuchet MS,Trebuchet MS_MSFontService,sans-serif" font-weight="700" font-size="64" transform="matrix(1 0 0 1 2311.98 1316)">1</text><text font-family="Trebuchet MS,Trebuchet MS_MSFontService,sans-serif" font-weight="700" font-size="64" transform="matrix(1 0 0 1 2311.98 1514)">2</text><text font-family="Trebuchet MS,Trebuchet MS_MSFontService,sans-serif" font-weight="700" font-size="64" transform="matrix(1 0 0 1 2311.98 1712)">3</text><text font-family="Trebuchet MS,Trebuchet MS_MSFontService,sans-serif" font-weight="700" font-size="64" transform="matrix(1 0 0 1 2401.41 1871)">α</text><text font-family="Trebuchet MS,Trebuchet MS_MSFontService,sans-serif" font-weight="700" font-size="64" transform="matrix(1 0 0 1 2599.7 1871)">β</text><text font-family="Trebuchet MS,Trebuchet MS_MSFontService,sans-serif" font-weight="700" font-size="64" transform="matrix(1 0 0 1 2798.72 1871)">γ</text><text font-family="Trebuchet MS,Trebuchet MS_MSFontService,sans-serif" font-weight="700" font-size="64" transform="matrix(1 0 0 1 2034.51 1509)">1,2,3</text><text font-family="Trebuchet MS,Trebuchet MS_MSFontService,sans-serif" font-weight="700" font-size="64" transform="matrix(1 0 0 1 2151.89 1941)">α</text><text font-family="Trebuchet MS,Trebuchet MS_MSFontService,sans-serif" font-weight="700" font-size="64" transform="matrix(1 0 0 1 2190.28 1941)">,</text><text font-family="Trebuchet MS,Trebuchet MS_MSFontService,sans-serif" font-weight="700" font-size="64" transform="matrix(1 0 0 1 2213.77 1941)">β</text><text font-family="Trebuchet MS,Trebuchet MS_MSFontService,sans-serif" font-weight="700" font-size="64" transform="matrix(1 0 0 1 2251.58 1941)">,</text><text font-family="Trebuchet MS,Trebuchet MS_MSFontService,sans-serif" font-weight="700" font-size="64" transform="matrix(1 0 0 1 2275.07 1941)">γ</text><text font-family="Trebuchet MS,Trebuchet MS_MSFontService,sans-serif" font-weight="700" font-size="46" transform="matrix(1 0 0 1 2013.24 1171)">DAC </text><text font-family="Trebuchet MS,Trebuchet MS_MSFontService,sans-serif" font-weight="700" font-size="46" transform="matrix(1 0 0 1 2113.5 1171)">sends an analog </text><text font-family="Trebuchet MS,Trebuchet MS_MSFontService,sans-serif" font-weight="700" font-size="46" transform="matrix(1 0 0 1 2036.73 1226)">input on each row</text><text font-family="Trebuchet MS,Trebuchet MS_MSFontService,sans-serif" font-weight="700" font-size="46" transform="matrix(1 0 0 1 2954.1 1228)">Each</text><text font-family="Trebuchet MS,Trebuchet MS_MSFontService,sans-serif" font-weight="700" font-size="46" transform="matrix(1 0 0 1 3069.25 1228)">memory</text><text font-family="Trebuchet MS,Trebuchet MS_MSFontService,sans-serif" font-weight="700" font-size="46" transform="matrix(1 0 0 1 3258.31 1228)">cell</text><text font-family="Trebuchet MS,Trebuchet MS_MSFontService,sans-serif" font-weight="700" font-size="46" transform="matrix(1 0 0 1 2959.25 1283)">stores</text><text font-family="Trebuchet MS,Trebuchet MS_MSFontService,sans-serif" font-weight="700" font-size="46" transform="matrix(1 0 0 1 3101.91 1283)">a</text><text font-family="Trebuchet MS,Trebuchet MS_MSFontService,sans-serif" font-weight="700" font-size="46" transform="matrix(1 0 0 1 3140.29 1283)">weight &amp; </text><text font-family="Trebuchet MS,Trebuchet MS_MSFontService,sans-serif" font-weight="700" font-size="46" transform="matrix(1 0 0 1 2969.56 1338)">computes a MAC</text><text font-family="Trebuchet MS,Trebuchet MS_MSFontService,sans-serif" font-weight="700" font-size="46" transform="matrix(1 0 0 1 2958.57 1953)">ADC reads analog output </text><text font-family="Trebuchet MS,Trebuchet MS_MSFontService,sans-serif" font-weight="700" font-size="46" transform="matrix(1 0 0 1 3027.89 2008)">from each column</text><rect x="1056.5" y="1313.5" width="537" height="693" stroke="#000000" stroke-width="9.16667" stroke-linejoin="round" stroke-miterlimit="10" fill="#FFFFFF"/><text font-family="Trebuchet MS,Trebuchet MS_MSFontService,sans-serif" font-weight="400" font-size="37" transform="matrix(1 0 0 1 1289.6 1369)">Inputs</text><path d="M1210.5 1355.5 1277.26 1355.5" stroke="#4F81BD" stroke-width="9.16667" stroke-linejoin="round" stroke-miterlimit="10" fill="none" fill-rule="evenodd"/><text font-family="Trebuchet MS,Trebuchet MS_MSFontService,sans-serif" font-weight="400" font-size="37" transform="matrix(1 0 0 1 1289.6 1427)">Outputs</text><path d="M1210.5 1413.5 1277.26 1413.5" stroke="#C0504D" stroke-width="9.16667" stroke-linejoin="round" stroke-miterlimit="10" fill="none" fill-rule="evenodd"/><text font-family="Trebuchet MS,Trebuchet MS_MSFontService,sans-serif" font-weight="400" font-size="37" transform="matrix(1 0 0 1 1289.6 1485)">Weights</text><path d="M1210.5 1471.5 1277.26 1471.5" stroke="#9BBB59" stroke-width="9.16667" stroke-linejoin="round" stroke-miterlimit="10" fill="none" fill-rule="evenodd"/><text font-family="Trebuchet MS,Trebuchet MS_MSFontService,sans-serif" font-weight="400" font-size="37" transform="matrix(1 0 0 1 1289.6 1573)">Digital</text><path d="M1210.5 1559.5 1277.26 1559.5" stroke="#000000" stroke-width="9.16667" stroke-linejoin="round" stroke-miterlimit="10" fill="none" fill-rule="evenodd"/><text font-family="Trebuchet MS,Trebuchet MS_MSFontService,sans-serif" font-weight="400" font-size="37" transform="matrix(1 0 0 1 1289.6 1630)">Analog</text><path d="M1210.5 1611.92 1277.26 1611.92 1277.26 1614.97 1210.5 1614.97ZM1210.5 1618.03 1277.26 1618.03 1277.26 1621.08 1210.5 1621.08Z"/><text font-family="Trebuchet MS,Trebuchet MS_MSFontService,sans-serif" font-weight="400" font-size="37" transform="matrix(1 0 0 1 1289.6 1716)">Endpoint</text><path d="M1233.42 1697.92 1277.26 1697.92 1277.26 1707.08 1233.42 1707.08ZM1238 1716.25 1210.5 1702.5 1238 1688.75Z"/><text font-family="Trebuchet MS,Trebuchet MS_MSFontService,sans-serif" font-weight="400" font-size="37" transform="matrix(1 0 0 1 1289.6 1774)">Connection</text><path d="M1210.5 1755.92 1277.26 1755.92 1277.26 1765.08 1210.5 1765.08ZM1210.5 1774.25C1202.91 1774.25 1196.75 1768.09 1196.75 1760.5 1196.75 1752.91 1202.91 1746.75 1210.5 1746.75 1218.09 1746.75 1224.25 1752.91 1224.25 1760.5 1224.25 1768.09 1218.09 1774.25 1210.5 1774.25Z"/><rect x="1089.5" y="1910.5" width="468" height="72.9999" stroke="#000000" stroke-width="9.16667" stroke-linejoin="round" stroke-miterlimit="10" fill="#FDEADA"/><text font-family="Trebuchet MS,Trebuchet MS_MSFontService,sans-serif" font-weight="400" font-size="48" transform="matrix(1 0 0 1 1100.97 1965)">Non</text><text font-family="Trebuchet MS,Trebuchet MS_MSFontService,sans-serif" font-weight="400" font-size="48" transform="matrix(1 0 0 1 1184.04 1965)">-</text><text font-family="Trebuchet MS,Trebuchet MS_MSFontService,sans-serif" font-weight="400" font-size="48" transform="matrix(1 0 0 1 1201.8 1965)">Cell Component</text><rect x="1089.5" y="1820.5" width="468" height="71.9999" stroke="#000000" stroke-width="9.16667" stroke-linejoin="round" stroke-miterlimit="10" fill="#EBF1DE"/><text font-family="Trebuchet MS,Trebuchet MS_MSFontService,sans-serif" font-weight="400" font-size="48" transform="matrix(1 0 0 1 1189.48 1874)">Memory Cell</text><text font-family="Trebuchet MS,Trebuchet MS_MSFontService,sans-serif" font-weight="700" font-size="64" transform="matrix(1 0 0 1 1180.44 1085)">Workload</text><rect x="1715.5" y="1403.5" width="297" height="603" stroke="#000000" stroke-width="9.16667" stroke-linejoin="round" stroke-miterlimit="10" stroke-dasharray="36.6667 27.5" fill="none"/><text font-family="Trebuchet MS,Trebuchet MS_MSFontService,sans-serif" font-weight="700" font-size="48" transform="matrix(1 0 0 1 1757.85 1616)">To </text><text font-family="Trebuchet MS,Trebuchet MS_MSFontService,sans-serif" font-weight="700" font-size="48" transform="matrix(1 0 0 1 1828.9 1616)">Buffer </text><text font-family="Trebuchet MS,Trebuchet MS_MSFontService,sans-serif" font-weight="700" font-size="48" transform="matrix(1 0 0 1 1753.57 1673)">Hierarchy</text><text font-family="Trebuchet MS,Trebuchet MS_MSFontService,sans-serif" font-style="italic" font-weight="400" font-size="41" transform="matrix(1 0 0 1 1759.3 1782)">N</text><text font-family="Trebuchet MS,Trebuchet MS_MSFontService,sans-serif" font-style="italic" font-weight="400" font-size="41" transform="matrix(1 0 0 1 1785.65 1782)">ot </text><text font-family="Trebuchet MS,Trebuchet MS_MSFontService,sans-serif" font-style="italic" font-weight="400" font-size="41" transform="matrix(1 0 0 1 1837.79 1782)">part of </text><text font-family="Trebuchet MS,Trebuchet MS_MSFontService,sans-serif" font-style="italic" font-weight="400" font-size="41" transform="matrix(1 0 0 1 1769.04 1832)">the macro</text></g></svg>